<svg width="34" height="33" viewBox="0 0 34 33" fill="none" xmlns="http://www.w3.org/2000/svg">
<path d="M17 16.5C22.3656 16.5 26.7143 12.8068 26.7143 8.25C26.7143 3.69316 22.3656 0 17 0C11.6344 0 7.28571 3.69316 7.28571 8.25C7.28571 12.8068 11.6344 16.5 17 16.5ZM23.8 18.5625H22.5326C20.8478 19.2199 18.9732 19.5938 17 19.5938C15.0268 19.5938 13.1598 19.2199 11.4674 18.5625H10.2C4.56875 18.5625 0 22.4426 0 27.225V29.9062C0 31.6143 1.6317 33 3.64286 33H30.3571C32.3683 33 34 31.6143 34 29.9062V27.225C34 22.4426 29.4313 18.5625 23.8 18.5625Z" fill="white"/>
</svg>
